<svg width="58" height="66.667" fill="none" xmlns="http://www.w3.org/2000/svg"><path fill-rule="evenodd" clip-rule="evenodd" d="M37.434 56.755C49.337 53.142 58 42.082 58 29 58 12.984 45.016 0 29 0S0 12.984 0 29c0 13.083 8.663 24.142 20.566 27.755l6.834 9.112a2 2 0 0 0 3.2 0z" fill="#fff"/><path fill-rule="evenodd" clip-rule="evenodd" d="M29 55c14.36 0 26-11.64 26-26S43.36 3 29 3 3 14.64 3 29s11.64 26 26 26z" fill="#ffc400"/><mask id="a" mask-type="alpha" maskUnits="userSpaceOnUse" x="7" y="7" width="52" height="52"><path fill-rule="evenodd" clip-rule="evenodd" d="M33 59c14.36 0 26-11.64 26-26S47.36 7 33 7 7 18.64 7 33s11.64 26 26 26z" fill="#fff"/></mask><g mask="url(#a)" transform="translate(-4 -4)"><path fill-rule="evenodd" clip-rule="evenodd" d="M21.142 35.754c-1.127-1.99-1.17-2.458-.119-4.293a5.626 5.626 0 0 1 4.862-2.835c.409 0 .814-1.681 1.21-1.593 1.202-3.212 4.218-5.337 7.655-5.337 3.725 0 7.009 2.595 7.93 6.217 2.216.503 3.892 2.462 4.036 4.776.026.41.58 1.33.85 1.596 1.033 1.016 1.643 1.216 2.5 1.488.692.22 1.113.906 1.003 1.63a1.454 1.454 0 0 1-1.44 1.25h-23.47c-2.082 0-4.005-1.111-5.017-2.9z" fill="#d5d7db" stroke="#3c4043" stroke-width="2.261"/><path fill-rule="evenodd" clip-rule="evenodd" d="M44.794 28.946a4.777 4.777 0 0 0-3-1.052c-.697 0-1.36.149-1.957.415" fill="#d8d8d8"/><path d="M44.794 28.946a4.777 4.777 0 0 0-3-1.052c-.697 0-1.36.149-1.957.415" stroke="#3c4043" stroke-width="2.261" stroke-linecap="round"/><path fill-rule="evenodd" clip-rule="evenodd" d="M14.929 37.53c-.1-.65.282-1.266.909-1.464.248-.078.986-.143 1.46-.496.648-.484 1.025-1.29 1.032-1.397a3.978 3.978 0 0 1 2.901-3.562c.74-2.569 3.128-4.394 5.83-4.394a6.035 6.035 0 0 1 5.579 3.69 4.267 4.267 0 0 1 4.353 2.074c.795 1.375.765 3.014-.083 4.498-.766 1.34-2.22 2.173-3.792 2.173H16.234a1.315 1.315 0 0 1-1.305-1.122z" fill="#90959c" stroke="#3c4043" stroke-width="2.261"/><path fill-rule="evenodd" clip-rule="evenodd" d="M33.339 29.846a4.46 4.46 0 0 0-3.896 2.26z" fill="#d8d8d8"/><path d="M33.339 29.846a4.46 4.46 0 0 0-3.896 2.26" stroke="#3c4043" stroke-width="2.261" stroke-linecap="round"/></g></svg>