<svg width="62" height="66.667" fill="none" xmlns="http://www.w3.org/2000/svg"><g fill-rule="evenodd" clip-rule="evenodd"><path d="M41.434 56.755C53.337 53.142 62 42.082 62 29 62 12.984 49.016 0 33 0S4 12.984 4 29c0 13.083 8.663 24.142 20.566 27.755l6.834 9.112a2 2 0 0 0 3.2 0l6.834-9.113z" fill="#F2F4F7"/><path d="M37.434 56.755C49.337 53.142 58 42.082 58 29 58 12.984 45.016 0 29 0S0 12.984 0 29c0 13.083 8.663 24.142 20.566 27.755l6.834 9.112a2 2 0 0 0 3.2 0l6.834-9.113z" fill="#fff"/></g></svg>