<svg width="58" height="66.667" fill="none" xmlns="http://www.w3.org/2000/svg"><path fill-rule="evenodd" clip-rule="evenodd" d="M37.434 56.755C49.337 53.142 58 42.082 58 29 58 12.984 45.016 0 29 0S0 12.984 0 29c0 13.083 8.663 24.142 20.566 27.755l6.834 9.112a2 2 0 0 0 3.2 0z" fill="#fff"/><path fill-rule="evenodd" clip-rule="evenodd" d="M29 55c14.36 0 26-11.64 26-26S43.36 3 29 3 3 14.64 3 29s11.64 26 26 26z" fill="#ffc400"/><mask id="a" mask-type="alpha" maskUnits="userSpaceOnUse" x="7" y="7" width="52" height="52"><path fill-rule="evenodd" clip-rule="evenodd" d="M33 59c14.36 0 26-11.64 26-26S47.36 7 33 7 7 18.64 7 33s11.64 26 26 26z" fill="#fff"/></mask><g mask="url(#a)" transform="translate(-4 -4)"><mask id="b" maskUnits="userSpaceOnUse" x="19.826" y="16.435" width="22" height="32" fill="#000"><path fill="#fff" d="M19.826 16.435h22v32h-22z"/><path fill-rule="evenodd" clip-rule="evenodd" d="M25.087 45.435a2.26 2.26 0 0 1-2.26-2.261v-21.43a2.26 2.26 0 0 1 2.252-2.26l11.29-.04a2.26 2.26 0 0 1 2.269 2.259l.013 21.47a2.26 2.26 0 0 1-2.26 2.262z"/></mask><path fill-rule="evenodd" clip-rule="evenodd" d="M25.087 45.435a2.26 2.26 0 0 1-2.26-2.261v-21.43a2.26 2.26 0 0 1 2.252-2.26l11.29-.04a2.26 2.26 0 0 1 2.269 2.259l.013 21.47a2.26 2.26 0 0 1-2.26 2.262z" fill="#90959c"/><path clip-rule="evenodd" d="M25.087 45.435a2.26 2.26 0 0 1-2.26-2.261v-21.43a2.26 2.26 0 0 1 2.252-2.26l11.29-.04a2.26 2.26 0 0 1 2.269 2.259l.013 21.47a2.26 2.26 0 0 1-2.26 2.262z" stroke="#55595e" stroke-width="4.522" mask="url(#b)"/><path fill-rule="evenodd" clip-rule="evenodd" d="M30.739 39.217c.624 0 1.13.506 1.13 1.13v5.088h-2.26v-5.087c0-.625.506-1.13 1.13-1.13zM30.739 25.087a1.13 1.13 0 0 1-1.13-1.13v-4.522h2.26v4.522a1.13 1.13 0 0 1-1.13 1.13z" fill="#fff"/><rect x="34.131" y="25.087" width="14.696" height="14.696" rx="2.261" fill="#65dbff" stroke="#18427c" stroke-width="2.261"/><mask id="c" mask-type="alpha" maskUnits="userSpaceOnUse" x="31" y="22" width="21" height="21"><rect x="33" y="23.956" width="16.956" height="16.956" rx="3.391" fill="#fff" stroke="#fff" stroke-width="2.261"/></mask><g mask="url(#c)"><path fill-rule="evenodd" clip-rule="evenodd" d="M34.945 25.087h2.776l5.552 14.696h-2.776zm4.736 0h2.776l5.552 14.696h-2.776z" fill="#caf8ff"/><rect x="34.131" y="25.087" width="14.696" height="14.696" rx="2.261" stroke="#225aa8" stroke-width="2.261"/></g><rect x="29.608" y="28.478" width="2.261" height="7.913" rx="1.13" fill="#fff"/></g></svg>